<svg width="60" height="80" viewBox="0 0 60 80" fill="none" xmlns="http://www.w3.org/2000/svg">
<path d="M30 80C30 80 60 51.57 60 30C60 22.0435 56.8393 14.4129 51.2132 8.7868C45.5871 3.1607 37.9565 0 30 0C22.0435 0 14.4129 3.1607 8.7868 8.7868C3.1607 14.4129 1.18561e-07 22.0435 0 30C0 51.57 30 80 30 80ZM30 45C26.0218 45 22.2064 43.4196 19.3934 40.6066C16.5804 37.7936 15 33.9782 15 30C15 26.0218 16.5804 22.2064 19.3934 19.3934C22.2064 16.5804 26.0218 15 30 15C33.9782 15 37.7936 16.5804 40.6066 19.3934C43.4196 22.2064 45 26.0218 45 30C45 33.9782 43.4196 37.7936 40.6066 40.6066C37.7936 43.4196 33.9782 45 30 45Z" fill="#264027"/>
</svg>
